<svg id="visual" viewBox="0 0 900 600" width="900" height="600" xmlns="http://www.w3.org/2000/svg" xmlns:xlink="http://www.w3.org/1999/xlink" version="1.1"><path d="M0 79L8.8 80C17.7 81 35.3 83 53 82C70.7 81 88.3 77 106 75C123.7 73 141.3 73 159 71C176.7 69 194.3 65 212 65C229.7 65 247.3 69 265 72C282.7 75 300.3 77 318 78C335.7 79 353.3 79 371 77C388.7 75 406.3 71 423.8 71C441.3 71 458.7 75 476.2 78C493.7 81 511.3 83 529 82C546.7 81 564.3 77 582 74C599.7 71 617.3 69 635 67C652.7 65 670.3 63 688 65C705.7 67 723.3 73 741 75C758.7 77 776.3 75 794 76C811.7 77 829.3 81 847 81C864.7 81 882.3 77 891.2 75L900 73L900 0L891.2 0C882.3 0 864.7 0 847 0C829.3 0 811.7 0 794 0C776.3 0 758.7 0 741 0C723.3 0 705.7 0 688 0C670.3 0 652.7 0 635 0C617.3 0 599.7 0 582 0C564.3 0 546.7 0 529 0C511.3 0 493.7 0 476.2 0C458.7 0 441.3 0 423.8 0C406.3 0 388.7 0 371 0C353.3 0 335.7 0 318 0C300.3 0 282.7 0 265 0C247.3 0 229.7 0 212 0C194.3 0 176.7 0 159 0C141.3 0 123.7 0 106 0C88.3 0 70.7 0 53 0C35.3 0 17.7 0 8.8 0L0 0Z" fill="#c3c9cc"></path><path d="M0 109L8.8 110C17.7 111 35.3 113 53 112C70.7 111 88.3 107 106 104C123.7 101 141.3 99 159 97C176.7 95 194.3 93 212 93C229.7 93 247.3 95 265 97C282.7 99 300.3 101 318 103C335.7 105 353.3 107 371 106C388.7 105 406.3 101 423.8 101C441.3 101 458.7 105 476.2 108C493.7 111 511.3 113 529 112C546.7 111 564.3 107 582 103C599.7 99 617.3 95 635 92C652.7 89 670.3 87 688 90C705.7 93 723.3 101 741 103C758.7 105 776.3 101 794 101C811.7 101 829.3 105 847 105C864.7 105 882.3 101 891.2 99L900 97L900 71L891.2 73C882.3 75 864.7 79 847 79C829.3 79 811.7 75 794 74C776.3 73 758.7 75 741 73C723.3 71 705.7 65 688 63C670.3 61 652.7 63 635 65C617.3 67 599.7 69 582 72C564.3 75 546.7 79 529 80C511.3 81 493.7 79 476.2 76C458.7 73 441.3 69 423.8 69C406.3 69 388.7 73 371 75C353.3 77 335.7 77 318 76C300.3 75 282.7 73 265 70C247.3 67 229.7 63 212 63C194.3 63 176.7 67 159 69C141.3 71 123.7 71 106 73C88.3 75 70.7 79 53 80C35.3 81 17.7 79 8.8 78L0 77Z" fill="#bec4c8"></path><path d="M0 133L8.8 134C17.7 135 35.3 137 53 136C70.7 135 88.3 131 106 127C123.7 123 141.3 119 159 116C176.7 113 194.3 111 212 111C229.7 111 247.3 113 265 115C282.7 117 300.3 119 318 121C335.7 123 353.3 125 371 125C388.7 125 406.3 123 423.8 124C441.3 125 458.7 129 476.2 131C493.7 133 511.3 133 529 132C546.7 131 564.3 129 582 125C599.7 121 617.3 115 635 111C652.7 107 670.3 105 688 109C705.7 113 723.3 123 741 125C758.7 127 776.3 121 794 120C811.7 119 829.3 123 847 124C864.7 125 882.3 123 891.2 122L900 121L900 95L891.2 97C882.3 99 864.7 103 847 103C829.3 103 811.7 99 794 99C776.3 99 758.7 103 741 101C723.3 99 705.7 91 688 88C670.3 85 652.7 87 635 90C617.3 93 599.7 97 582 101C564.3 105 546.7 109 529 110C511.3 111 493.7 109 476.2 106C458.7 103 441.3 99 423.8 99C406.3 99 388.7 103 371 104C353.3 105 335.7 103 318 101C300.3 99 282.7 97 265 95C247.3 93 229.7 91 212 91C194.3 91 176.7 93 159 95C141.3 97 123.7 99 106 102C88.3 105 70.7 109 53 110C35.3 111 17.7 109 8.8 108L0 107Z" fill="#bac0c4"></path><path d="M0 157L8.8 158C17.7 159 35.3 161 53 159C70.7 157 88.3 151 106 146C123.7 141 141.3 137 159 135C176.7 133 194.3 133 212 134C229.7 135 247.3 137 265 138C282.7 139 300.3 139 318 140C335.7 141 353.3 143 371 143C388.7 143 406.3 141 423.8 142C441.3 143 458.7 147 476.2 149C493.7 151 511.3 151 529 151C546.7 151 564.3 151 582 147C599.7 143 617.3 135 635 130C652.7 125 670.3 123 688 127C705.7 131 723.3 141 741 144C758.7 147 776.3 143 794 143C811.7 143 829.3 147 847 148C864.7 149 882.3 147 891.2 146L900 145L900 119L891.2 120C882.3 121 864.7 123 847 122C829.3 121 811.7 117 794 118C776.3 119 758.7 125 741 123C723.3 121 705.7 111 688 107C670.3 103 652.7 105 635 109C617.3 113 599.7 119 582 123C564.3 127 546.7 129 529 130C511.3 131 493.7 131 476.2 129C458.7 127 441.3 123 423.8 122C406.3 121 388.7 123 371 123C353.3 123 335.7 121 318 119C300.3 117 282.7 115 265 113C247.3 111 229.7 109 212 109C194.3 109 176.7 111 159 114C141.3 117 123.7 121 106 125C88.3 129 70.7 133 53 134C35.3 135 17.7 133 8.8 132L0 131Z" fill="#b5bbc1"></path><path d="M0 193L8.8 193C17.7 193 35.3 193 53 191C70.7 189 88.3 185 106 180C123.7 175 141.3 169 159 166C176.7 163 194.3 163 212 165C229.7 167 247.3 171 265 174C282.7 177 300.3 179 318 179C335.7 179 353.3 177 371 176C388.7 175 406.3 175 423.8 178C441.3 181 458.7 187 476.2 189C493.7 191 511.3 189 529 187C546.7 185 564.3 183 582 179C599.7 175 617.3 169 635 166C652.7 163 670.3 163 688 166C705.7 169 723.3 175 741 177C758.7 179 776.3 177 794 178C811.7 179 829.3 183 847 184C864.7 185 882.3 183 891.2 182L900 181L900 143L891.2 144C882.3 145 864.7 147 847 146C829.3 145 811.7 141 794 141C776.3 141 758.7 145 741 142C723.3 139 705.7 129 688 125C670.3 121 652.7 123 635 128C617.3 133 599.7 141 582 145C564.3 149 546.7 149 529 149C511.3 149 493.7 149 476.2 147C458.7 145 441.3 141 423.8 140C406.3 139 388.7 141 371 141C353.3 141 335.7 139 318 138C300.3 137 282.7 137 265 136C247.3 135 229.7 133 212 132C194.3 131 176.7 131 159 133C141.3 135 123.7 139 106 144C88.3 149 70.7 155 53 157C35.3 159 17.7 157 8.8 156L0 155Z" fill="#b1b7bd"></path><path d="M0 217L8.8 217C17.7 217 35.3 217 53 217C70.7 217 88.3 217 106 214C123.7 211 141.3 205 159 200C176.7 195 194.3 191 212 191C229.7 191 247.3 195 265 198C282.7 201 300.3 203 318 204C335.7 205 353.3 205 371 205C388.7 205 406.3 205 423.8 207C441.3 209 458.7 213 476.2 216C493.7 219 511.3 221 529 220C546.7 219 564.3 215 582 209C599.7 203 617.3 195 635 192C652.7 189 670.3 191 688 195C705.7 199 723.3 205 741 207C758.7 209 776.3 207 794 209C811.7 211 829.3 217 847 218C864.7 219 882.3 215 891.2 213L900 211L900 179L891.2 180C882.3 181 864.7 183 847 182C829.3 181 811.7 177 794 176C776.3 175 758.7 177 741 175C723.3 173 705.7 167 688 164C670.3 161 652.7 161 635 164C617.3 167 599.7 173 582 177C564.3 181 546.7 183 529 185C511.3 187 493.7 189 476.2 187C458.7 185 441.3 179 423.8 176C406.3 173 388.7 173 371 174C353.3 175 335.7 177 318 177C300.3 177 282.7 175 265 172C247.3 169 229.7 165 212 163C194.3 161 176.7 161 159 164C141.3 167 123.7 173 106 178C88.3 183 70.7 187 53 189C35.3 191 17.7 191 8.8 191L0 191Z" fill="#adb2b9"></path><path d="M0 361L8.8 359C17.7 357 35.3 353 53 353C70.7 353 88.3 357 106 352C123.7 347 141.3 333 159 329C176.7 325 194.3 331 212 329C229.7 327 247.3 317 265 317C282.7 317 300.3 327 318 331C335.7 335 353.3 333 371 329C388.7 325 406.3 319 423.8 320C441.3 321 458.7 329 476.2 333C493.7 337 511.3 337 529 335C546.7 333 564.3 329 582 329C599.7 329 617.3 333 635 331C652.7 329 670.3 321 688 321C705.7 321 723.3 329 741 332C758.7 335 776.3 333 794 330C811.7 327 829.3 323 847 323C864.7 323 882.3 327 891.2 329L900 331L900 209L891.2 211C882.3 213 864.7 217 847 216C829.3 215 811.7 209 794 207C776.3 205 758.7 207 741 205C723.3 203 705.7 197 688 193C670.3 189 652.7 187 635 190C617.3 193 599.7 201 582 207C564.3 213 546.7 217 529 218C511.3 219 493.7 217 476.2 214C458.7 211 441.3 207 423.8 205C406.3 203 388.7 203 371 203C353.3 203 335.7 203 318 202C300.3 201 282.7 199 265 196C247.3 193 229.7 189 212 189C194.3 189 176.7 193 159 198C141.3 203 123.7 209 106 212C88.3 215 70.7 215 53 215C35.3 215 17.7 215 8.8 215L0 215Z" fill="#a7acb3"></path><path d="M0 385L8.8 383C17.7 381 35.3 377 53 377C70.7 377 88.3 381 106 377C123.7 373 141.3 361 159 358C176.7 355 194.3 361 212 358C229.7 355 247.3 343 265 343C282.7 343 300.3 355 318 360C335.7 365 353.3 363 371 359C388.7 355 406.3 349 423.8 349C441.3 349 458.7 355 476.2 359C493.7 363 511.3 365 529 364C546.7 363 564.3 359 582 358C599.7 357 617.3 359 635 356C652.7 353 670.3 345 688 345C705.7 345 723.3 353 741 357C758.7 361 776.3 361 794 358C811.7 355 829.3 349 847 348C864.7 347 882.3 351 891.2 353L900 355L900 329L891.2 327C882.3 325 864.7 321 847 321C829.3 321 811.7 325 794 328C776.3 331 758.7 333 741 330C723.3 327 705.7 319 688 319C670.3 319 652.7 327 635 329C617.3 331 599.7 327 582 327C564.3 327 546.7 331 529 333C511.3 335 493.7 335 476.2 331C458.7 327 441.3 319 423.8 318C406.3 317 388.7 323 371 327C353.3 331 335.7 333 318 329C300.3 325 282.7 315 265 315C247.3 315 229.7 325 212 327C194.3 329 176.7 323 159 327C141.3 331 123.7 345 106 350C88.3 355 70.7 351 53 351C35.3 351 17.7 355 8.8 357L0 359Z" fill="#9ea3aa"></path><path d="M0 427L8.8 425C17.7 423 35.3 419 53 418C70.7 417 88.3 419 106 417C123.7 415 141.3 409 159 406C176.7 403 194.3 403 212 397C229.7 391 247.3 379 265 380C282.7 381 300.3 395 318 400C335.7 405 353.3 401 371 396C388.7 391 406.3 385 423.8 385C441.3 385 458.7 391 476.2 397C493.7 403 511.3 409 529 408C546.7 407 564.3 399 582 398C599.7 397 617.3 403 635 401C652.7 399 670.3 389 688 387C705.7 385 723.3 391 741 394C758.7 397 776.3 397 794 395C811.7 393 829.3 389 847 389C864.7 389 882.3 393 891.2 395L900 397L900 353L891.2 351C882.3 349 864.7 345 847 346C829.3 347 811.7 353 794 356C776.3 359 758.7 359 741 355C723.3 351 705.7 343 688 343C670.3 343 652.7 351 635 354C617.3 357 599.7 355 582 356C564.3 357 546.7 361 529 362C511.3 363 493.7 361 476.2 357C458.7 353 441.3 347 423.8 347C406.3 347 388.7 353 371 357C353.3 361 335.7 363 318 358C300.3 353 282.7 341 265 341C247.3 341 229.7 353 212 356C194.3 359 176.7 353 159 356C141.3 359 123.7 371 106 375C88.3 379 70.7 375 53 375C35.3 375 17.7 379 8.8 381L0 383Z" fill="#959aa1"></path><path d="M0 517L8.8 514C17.7 511 35.3 505 53 506C70.7 507 88.3 515 106 516C123.7 517 141.3 511 159 509C176.7 507 194.3 509 212 508C229.7 507 247.3 503 265 500C282.7 497 300.3 495 318 495C335.7 495 353.3 497 371 501C388.7 505 406.3 511 423.8 513C441.3 515 458.7 513 476.2 513C493.7 513 511.3 515 529 515C546.7 515 564.3 513 582 511C599.7 509 617.3 507 635 504C652.7 501 670.3 497 688 496C705.7 495 723.3 497 741 498C758.7 499 776.3 499 794 501C811.7 503 829.3 507 847 509C864.7 511 882.3 511 891.2 511L900 511L900 395L891.2 393C882.3 391 864.7 387 847 387C829.3 387 811.7 391 794 393C776.3 395 758.7 395 741 392C723.3 389 705.7 383 688 385C670.3 387 652.7 397 635 399C617.3 401 599.7 395 582 396C564.3 397 546.7 405 529 406C511.3 407 493.7 401 476.2 395C458.7 389 441.3 383 423.8 383C406.3 383 388.7 389 371 394C353.3 399 335.7 403 318 398C300.3 393 282.7 379 265 378C247.3 377 229.7 389 212 395C194.3 401 176.7 401 159 404C141.3 407 123.7 413 106 415C88.3 417 70.7 415 53 416C35.3 417 17.7 421 8.8 423L0 425Z" fill="#8d9298"></path><path d="M0 559L8.8 555C17.7 551 35.3 543 53 542C70.7 541 88.3 547 106 548C123.7 549 141.3 545 159 544C176.7 543 194.3 545 212 544C229.7 543 247.3 539 265 537C282.7 535 300.3 535 318 536C335.7 537 353.3 539 371 542C388.7 545 406.3 549 423.8 551C441.3 553 458.7 553 476.2 554C493.7 555 511.3 557 529 555C546.7 553 564.3 547 582 546C599.7 545 617.3 549 635 548C652.7 547 670.3 541 688 539C705.7 537 723.3 539 741 539C758.7 539 776.3 537 794 539C811.7 541 829.3 547 847 549C864.7 551 882.3 549 891.2 548L900 547L900 509L891.2 509C882.3 509 864.7 509 847 507C829.3 505 811.7 501 794 499C776.3 497 758.7 497 741 496C723.3 495 705.7 493 688 494C670.3 495 652.7 499 635 502C617.3 505 599.7 507 582 509C564.3 511 546.7 513 529 513C511.3 513 493.7 511 476.2 511C458.7 511 441.3 513 423.8 511C406.3 509 388.7 503 371 499C353.3 495 335.7 493 318 493C300.3 493 282.7 495 265 498C247.3 501 229.7 505 212 506C194.3 507 176.7 505 159 507C141.3 509 123.7 515 106 514C88.3 513 70.7 505 53 504C35.3 503 17.7 509 8.8 512L0 515Z" fill="#848990"></path><path d="M0 601L8.8 601C17.7 601 35.3 601 53 601C70.7 601 88.3 601 106 601C123.7 601 141.3 601 159 601C176.7 601 194.3 601 212 601C229.7 601 247.3 601 265 601C282.7 601 300.3 601 318 601C335.7 601 353.3 601 371 601C388.7 601 406.3 601 423.8 601C441.3 601 458.7 601 476.2 601C493.7 601 511.3 601 529 601C546.7 601 564.3 601 582 601C599.7 601 617.3 601 635 601C652.7 601 670.3 601 688 601C705.7 601 723.3 601 741 601C758.7 601 776.3 601 794 601C811.7 601 829.3 601 847 601C864.7 601 882.3 601 891.2 601L900 601L900 545L891.2 546C882.3 547 864.7 549 847 547C829.3 545 811.7 539 794 537C776.3 535 758.7 537 741 537C723.3 537 705.7 535 688 537C670.3 539 652.7 545 635 546C617.3 547 599.7 543 582 544C564.3 545 546.7 551 529 553C511.3 555 493.7 553 476.2 552C458.7 551 441.3 551 423.8 549C406.3 547 388.7 543 371 540C353.3 537 335.7 535 318 534C300.3 533 282.7 533 265 535C247.3 537 229.7 541 212 542C194.3 543 176.7 541 159 542C141.3 543 123.7 547 106 546C88.3 545 70.7 539 53 540C35.3 541 17.7 549 8.8 553L0 557Z" fill="#7c8187"></path></svg>